<?xml version="1.0" encoding="utf-8"?>
<!-- Generator: Adobe Illustrator 22.0.0, SVG Export Plug-In . SVG Version: 6.00 Build 0)  -->
<svg version="1.1" id="Layer_1" xmlns="http://www.w3.org/2000/svg" xmlns:xlink="http://www.w3.org/1999/xlink" x="0px" y="0px"
	 viewBox="0 0 24 24" style="enable-background:new 0 0 24 24;" xml:space="preserve">
<g>
	<path d="M18.7,8c0,0.1,0.1,0.1,0.1,0.2c0.2,0.9,0,1.8-0.5,2.6c-0.4,0.6-1,1-1.8,1.5l-1.8,1l-1.4,4.8c0.1,1.1,1.5,1.7,1.9,0.3L17,12
		l2.6-1.5C22.4,8.9,20.3,7.7,18.7,8z"/>
	<path d="M16.8,9.1c0,0.4-0.4,0.9-1.3,1.4L12.9,12L12,14.8l-1,3.7c-0.2,0.6-0.5,0.8-0.9,0.8c-0.6,0-1.1-0.6-1.1-1.4l0.2-1.6l0.3-2.4
		l-2,1.2L5.9,16c-0.3,0.2-0.8,0.4-1.2,0.4c-0.3,0-0.6-0.1-0.9-0.5L3.3,15c-0.5-0.8-1-1.8-0.1-1.8c0.2,0,0.4,0,0.7,0.1l1.1,0.4
		l3.3-2.1L4.4,9.9c-1-0.5-1-2,0.1-2c0.1,0,0.2,0,0.4,0.1l3,0.7l3.7,0.9l1.3-0.7l1.1-0.6C14.3,8.1,14.7,8,15.1,8
		C16,8,16.8,8.4,16.8,9.1z"/>
</g>
</svg>
