<?xml version="1.0" encoding="utf-8"?>
<svg version="1.1" id="Layer_1" xmlns="http://www.w3.org/2000/svg" xmlns:xlink="http://www.w3.org/1999/xlink" x="0px" y="0px"
	 viewBox="0 0 32 32" style="enable-background:new 0 0 32 32;" xml:space="preserve">
<path d="M15.6,23.7c-1.2,0-2.2,1-2.2,2.2s1,2.2,2.2,2.2s2.2-1,2.2-2.2C17.9,24.7,16.9,23.7,15.6,23.7z M21.3,6
	c-1.4-1-3.4-1.5-5.6-1.5c-1.8,0-3.7,0.6-5.1,1.7s-2.2,2.5-2.2,3.9c0,1.1,0.9,1.5,1.7,1.5c1.1,0,1.5-0.6,2-1.7
	c0.6-1.2,1.3-2.7,3.9-2.7c2.3,0,3.7,1.3,3.7,3.4c0,1.8-1.5,2.9-2.9,4c-1.5,1.2-2.9,2.3-2.9,4.1c0,0.8,0.5,1.7,1.6,1.7
	c1.2,0,1.4-0.5,1.8-1.4c0.1-0.4,0.3-0.8,0.6-1.2c0.4-0.5,1.1-1,1.9-1.6c1.8-1.3,4-2.9,4-5.6C23.8,8.6,22.9,7.1,21.3,6z"/>
</svg>
